# xmcd
#
# Track frame offsets: 
#        150
#        26072
#        63046
#        86767
#        109557
#        128160
#        157723
#        177253
#        199820
#        229534
#
# Disc length: 3413 seconds
#
# Revision: 0
# Processed by: cddbd v1.5.2PL0 Copyright (c) Steve Scherf et al.
# Submitted via: ExactAudioCopy v1.0b1
#
DISCID=720d530a
DTITLE=Blues Lick - Sekt und Wuide Weiber
DYEAR=2010
DGENRE=Blues
TTITLE0=Da Grichtsvoizieha
TTITLE1=Da Blues Paule
TTITLE2=Langsam werd's ma z bläd
TTITLE3=Da Louisiana Schorsch
TTITLE4=Mir koana Schuid bewusst Blues
TTITLE5=Henriette
TTITLE6=Bayern Rock
TTITLE7=Jedn Dog in d Arbat
TTITLE8=Dann werd a Reiba
TTITLE9=Sekt und wuide Weiber
EXTD=
EXTT0=
EXTT1=
EXTT2=
EXTT3=
EXTT4=
EXTT5=
EXTT6=
EXTT7=
EXTT8=
EXTT9=
PLAYORDER=
